# Blender v2.78 (sub 0) OBJ File: 'Planks of wood.blend'
# www.blender.org
mtllib resources/woodPlank.mtl
o Cube.002
v -0.987000 -0.124163 5.296044
v -1.000000 -0.124163 5.283044
v -0.987000 -0.137163 5.283044
v -0.993491 -0.124163 5.294307
v -0.987000 -0.130654 5.294307
v -0.993217 -0.130379 5.292620
v -0.998263 -0.130654 5.283044
v -0.998263 -0.124163 5.289536
v -0.996576 -0.130379 5.289260
v -0.987000 -0.135426 5.289536
v -0.993491 -0.135426 5.283044
v -0.993217 -0.133739 5.289260
v -0.987000 0.124163 5.296044
v -0.987000 0.137163 5.283044
v -1.000000 0.124163 5.283044
v -0.987000 0.130654 5.294307
v -0.993491 0.124163 5.294307
v -0.993217 0.130379 5.292620
v -0.993491 0.135426 5.283044
v -0.987000 0.135426 5.289536
v -0.993217 0.133739 5.289260
v -0.998263 0.124163 5.289536
v -0.998263 0.130654 5.283044
v -0.996576 0.130379 5.289260
v -0.987000 -0.124163 -5.296044
v -0.987000 -0.137163 -5.283044
v -1.000000 -0.124163 -5.283044
v -0.987000 -0.130654 -5.294307
v -0.993491 -0.124163 -5.294307
v -0.993217 -0.130379 -5.292620
v -0.993491 -0.135426 -5.283044
v -0.987000 -0.135426 -5.289536
v -0.993217 -0.133739 -5.289260
v -0.998263 -0.124163 -5.289536
v -0.998263 -0.130654 -5.283044
v -0.996576 -0.130379 -5.289260
v -0.987000 0.137163 -5.283044
v -0.987000 0.124163 -5.296044
v -1.000000 0.124163 -5.283044
v -0.987000 0.135426 -5.289536
v -0.993491 0.135426 -5.283044
v -0.993217 0.133739 -5.289260
v -0.993491 0.124163 -5.294307
v -0.987000 0.130654 -5.294307
v -0.993217 0.130379 -5.292620
v -0.998263 0.130654 -5.283044
v -0.998263 0.124163 -5.289536
v -0.996576 0.130379 -5.289260
v 0.987000 -0.124163 5.296044
v 0.987000 -0.137163 5.283044
v 1.000000 -0.124163 5.283044
v 0.987000 -0.130654 5.294307
v 0.993491 -0.124163 5.294307
v 0.993217 -0.130379 5.292620
v 0.993491 -0.135426 5.283044
v 0.987000 -0.135426 5.289536
v 0.993217 -0.133739 5.289260
v 0.998263 -0.124163 5.289536
v 0.998263 -0.130654 5.283044
v 0.996576 -0.130379 5.289260
v 0.987000 0.137163 5.283044
v 0.987000 0.124163 5.296044
v 1.000000 0.124163 5.283044
v 0.987000 0.135426 5.289536
v 0.993491 0.135426 5.283044
v 0.993217 0.133739 5.289260
v 0.993491 0.124163 5.294307
v 0.987000 0.130654 5.294307
v 0.993217 0.130379 5.292620
v 0.998263 0.130654 5.283044
v 0.998263 0.124163 5.289536
v 0.996576 0.130379 5.289260
v 1.000000 -0.124163 -5.283044
v 0.987000 -0.137163 -5.283044
v 0.987000 -0.124163 -5.296044
v 0.998263 -0.130654 -5.283044
v 0.998263 -0.124163 -5.289536
v 0.996576 -0.130379 -5.289260
v 0.987000 -0.135426 -5.289536
v 0.993491 -0.135426 -5.283044
v 0.993217 -0.133739 -5.289260
v 0.993491 -0.124163 -5.294307
v 0.987000 -0.130654 -5.294307
v 0.993217 -0.130379 -5.292620
v 0.987000 0.137163 -5.283044
v 1.000000 0.124163 -5.283044
v 0.987000 0.124163 -5.296044
v 0.993491 0.135426 -5.283044
v 0.987000 0.135426 -5.289536
v 0.993217 0.133739 -5.289260
v 0.998263 0.124163 -5.289536
v 0.998263 0.130654 -5.283044
v 0.996576 0.130379 -5.289260
v 0.987000 0.130654 -5.294307
v 0.993491 0.124163 -5.294307
v 0.993217 0.130379 -5.292620
vt 0.4166 0.9811
vt 0.5970 0.0154
vt 0.4166 0.0154
vt 0.3087 0.9659
vt 0.2863 0.0165
vt 0.3087 0.0165
vt 0.5970 0.9811
vt 0.4166 0.0154
vt 0.5970 0.0154
vt 0.7056 0.2997
vt 0.7379 0.5566
vt 0.7056 0.5566
vt 0.7056 0.5566
vt 0.7379 0.2997
vt 0.7056 0.2997
vt 0.7379 0.2989
vt 0.7387 0.2997
vt 0.7379 0.2997
vt 0.7379 0.2980
vt 0.7387 0.2989
vt 0.2858 0.9659
vt 0.2863 0.9665
vt 0.2863 0.9659
vt 0.2852 0.9659
vt 0.2858 0.9665
vt 0.4166 0.0148
vt 0.4160 0.0154
vt 0.4160 0.0142
vt 0.4160 0.0148
vt 0.7387 0.2980
vt 0.7396 0.2989
vt 0.7047 0.2997
vt 0.7056 0.2989
vt 0.7039 0.2997
vt 0.7048 0.2989
vt 0.4160 0.0154
vt 0.4166 0.0148
vt 0.4154 0.0148
vt 0.4160 0.0148
vt 0.3087 0.9665
vt 0.3092 0.9659
vt 0.3087 0.9659
vt 0.3092 0.9671
vt 0.3092 0.9665
vt 0.7039 0.2989
vt 0.7048 0.2980
vt 0.7387 0.2997
vt 0.7379 0.2989
vt 0.7396 0.2997
vt 0.7387 0.2989
vt 0.4160 0.9811
vt 0.4166 0.9817
vt 0.4154 0.9817
vt 0.4160 0.9817
vt 0.2863 0.0159
vt 0.2858 0.0165
vt 0.2863 0.0165
vt 0.2858 0.0153
vt 0.2858 0.0159
vt 0.7396 0.2989
vt 0.7387 0.2980
vt 0.4166 0.9817
vt 0.4160 0.9811
vt 0.4166 0.9811
vt 0.4160 0.9823
vt 0.4160 0.9817
vt 0.7056 0.2989
vt 0.7047 0.2997
vt 0.7056 0.2980
vt 0.7048 0.2989
vt 0.3092 0.0165
vt 0.3087 0.0159
vt 0.3087 0.0165
vt 0.3098 0.0165
vt 0.3092 0.0159
vt 0.4154 0.9817
vt 0.7387 0.5566
vt 0.7379 0.5574
vt 0.7396 0.5566
vt 0.7387 0.5574
vt 0.5976 0.0154
vt 0.5970 0.0148
vt 0.5982 0.0148
vt 0.5976 0.0148
vt 0.2863 0.9665
vt 0.2858 0.9659
vt 0.2863 0.9659
vt 0.2858 0.9671
vt 0.2858 0.9665
vt 0.7396 0.5574
vt 0.7387 0.5583
vt 0.5970 0.0148
vt 0.5976 0.0154
vt 0.5976 0.0142
vt 0.5976 0.0148
vt 0.7056 0.5574
vt 0.7047 0.5566
vt 0.7056 0.5583
vt 0.7048 0.5574
vt 0.3092 0.9659
vt 0.3087 0.9665
vt 0.3098 0.9659
vt 0.3092 0.9665
vt 0.5982 0.0148
vt 0.2858 0.0165
vt 0.2863 0.0159
vt 0.2852 0.0165
vt 0.2858 0.0159
vt 0.5970 0.9817
vt 0.5976 0.9811
vt 0.5970 0.9811
vt 0.5976 0.9823
vt 0.5976 0.9817
vt 0.7379 0.5574
vt 0.7387 0.5566
vt 0.7379 0.5566
vt 0.7379 0.5583
vt 0.7387 0.5574
vt 0.2852 0.0159
vt 0.2858 0.0153
vt 0.5976 0.9811
vt 0.5970 0.9817
vt 0.5982 0.9817
vt 0.5976 0.9817
vt 0.3087 0.0159
vt 0.3092 0.0165
vt 0.3092 0.0153
vt 0.3092 0.0159
vt 0.7047 0.5566
vt 0.7056 0.5574
vt 0.7039 0.5566
vt 0.7048 0.5574
vt 0.5976 0.9823
vt 0.4154 0.0154
vt 0.4154 0.9811
vt 0.4166 0.9823
vt 0.3087 0.0153
vt 0.5970 0.9823
vt 0.5982 0.9811
vt 0.5982 0.0154
vt 0.5970 0.0142
vt 0.4166 0.0142
vt 0.2852 0.9665
vt 0.3087 0.9671
vt 0.2863 0.0153
vt 0.7048 0.2980
vt 0.3098 0.0159
vt 0.2863 0.9671
vt 0.7048 0.5583
vt 0.3098 0.9665
vt 0.7387 0.5583
vt 0.7039 0.5574
vt 0.7056 0.2980
vt 0.4154 0.9811
vt 0.7379 0.2980
vt 0.4154 0.0154
vt 0.5970 0.9823
vt 0.2863 0.0153
vt 0.4166 0.9823
vt 0.5982 0.0154
vt 0.7379 0.5583
vt 0.5982 0.9811
vt 0.4166 0.0142
vt 0.5970 0.0142
vn -0.1280 -0.9835 -0.1280
vn 0.1280 -0.9835 0.1280
vn -0.1280 -0.9835 0.1280
vn 0.9835 0.1280 0.1280
vn 0.9835 -0.1280 -0.1279
vn 0.9835 0.1280 -0.1280
vn 0.1280 0.9835 -0.1280
vn -0.1280 0.9835 0.1280
vn 0.1280 0.9835 0.1280
vn -0.1280 0.1279 0.9835
vn 0.1279 -0.1279 0.9835
vn 0.1279 0.1279 0.9835
vn 0.1279 0.1279 -0.9835
vn -0.1279 -0.1279 -0.9835
vn -0.1279 0.1279 -0.9835
vn -0.4915 -0.1216 0.8623
vn -0.1216 -0.4915 0.8623
vn -0.1279 -0.1279 0.9835
vn -0.8623 -0.1216 0.4916
vn -0.4488 -0.4488 0.7727
vn -0.8623 -0.4916 0.1216
vn -0.9835 -0.1280 0.1280
vn -0.4916 -0.8623 0.1216
vn -0.7727 -0.4489 0.4489
vn -0.1216 -0.8623 0.4916
vn -0.4488 -0.7727 0.4488
vn -0.1216 0.4915 0.8623
vn -0.4916 0.1216 0.8623
vn -0.1216 0.8623 0.4916
vn -0.4488 0.4488 0.7727
vn -0.4916 0.8623 0.1216
vn -0.7727 0.4489 0.4488
vn -0.4488 0.7727 0.4488
vn -0.8623 0.1216 0.4915
vn -0.8623 0.4916 0.1216
vn -0.9835 0.1280 0.1279
vn -0.1216 -0.4915 -0.8623
vn -0.4915 -0.1216 -0.8623
vn -0.1216 -0.8623 -0.4916
vn -0.4488 -0.4488 -0.7727
vn -0.4916 -0.8623 -0.1216
vn -0.7727 -0.4489 -0.4488
vn -0.4488 -0.7727 -0.4488
vn -0.8623 -0.1216 -0.4916
vn -0.8623 -0.4916 -0.1216
vn -0.9835 -0.1280 -0.1279
vn -0.1216 0.8623 -0.4916
vn -0.4916 0.8623 -0.1216
vn -0.1280 0.9835 -0.1280
vn -0.4488 0.4488 -0.7727
vn -0.4488 0.7727 -0.4488
vn -0.4915 0.1216 -0.8623
vn -0.1216 0.4915 -0.8623
vn -0.8623 0.1216 -0.4916
vn -0.8623 0.4916 -0.1216
vn -0.9835 0.1280 -0.1280
vn -0.7727 0.4489 -0.4488
vn 0.1216 -0.4915 0.8623
vn 0.4915 -0.1216 0.8623
vn 0.1216 -0.8623 0.4916
vn 0.4488 -0.4488 0.7727
vn 0.4916 -0.8623 0.1216
vn 0.7727 -0.4489 0.4488
vn 0.4488 -0.7727 0.4488
vn 0.8623 -0.1216 0.4916
vn 0.8623 -0.4916 0.1216
vn 0.9835 -0.1280 0.1279
vn 0.1216 0.8623 0.4916
vn 0.4916 0.8623 0.1216
vn 0.4488 0.4488 0.7727
vn 0.4488 0.7727 0.4488
vn 0.4915 0.1216 0.8623
vn 0.1216 0.4915 0.8623
vn 0.8623 0.1216 0.4916
vn 0.8623 0.4916 0.1216
vn 0.7727 0.4489 0.4488
vn 0.8623 -0.4916 -0.1216
vn 0.8623 -0.1216 -0.4916
vn 0.4916 -0.8623 -0.1216
vn 0.7727 -0.4489 -0.4488
vn 0.1216 -0.8623 -0.4916
vn 0.1280 -0.9835 -0.1280
vn 0.4488 -0.4488 -0.7727
vn 0.4488 -0.7727 -0.4488
vn 0.4915 -0.1216 -0.8623
vn 0.1216 -0.4915 -0.8623
vn 0.1279 -0.1279 -0.9835
vn 0.4916 0.8623 -0.1216
vn 0.1216 0.8623 -0.4916
vn 0.7727 0.4489 -0.4488
vn 0.4488 0.7727 -0.4488
vn 0.8623 0.1216 -0.4916
vn 0.8623 0.4916 -0.1216
vn 0.4488 0.4488 -0.7727
vn 0.1216 0.4915 -0.8623
vn 0.4916 0.1216 -0.8623
g Cube.002_Cube.002_Material.001
usemtl Material.001
s 1
f 26/1/1 50/2/2 3/3/3
f 63/4/4 73/5/5 86/6/6
f 85/7/7 14/8/8 61/9/9
f 13/10/10 49/11/11 62/12/12
f 87/13/13 25/14/14 38/15/15
f 4/16/16 5/17/17 1/18/18
f 8/19/19 6/20/20 4/16/16
f 7/21/21 8/22/19 2/23/22
f 11/24/23 9/25/24 7/21/21
f 10/26/25 11/27/23 3/3/3
f 10/26/25 6/28/20 12/29/26
f 6/20/20 9/30/24 12/31/26
f 16/32/27 17/33/28 13/10/10
f 20/34/29 18/35/30 16/32/27
f 19/36/31 20/37/29 14/8/8
f 19/36/31 24/38/32 21/39/33
f 22/40/34 23/41/35 15/42/36
f 22/40/34 18/43/30 24/44/32
f 18/35/30 21/45/33 24/46/32
f 28/47/37 29/48/38 25/14/14
f 32/49/39 30/50/40 28/47/37
f 31/51/41 32/52/39 26/1/1
f 31/51/41 36/53/42 33/54/43
f 34/55/44 35/56/45 27/57/46
f 34/55/44 30/58/40 36/59/42
f 30/50/40 33/60/43 36/61/42
f 40/62/47 41/63/48 37/64/49
f 40/62/47 45/65/50 42/66/51
f 43/67/52 44/68/53 38/15/15
f 47/69/54 45/70/50 43/67/52
f 46/71/55 47/72/54 39/73/56
f 41/74/48 48/75/57 46/71/55
f 42/66/51 45/65/50 48/76/57
f 52/77/58 53/78/59 49/11/11
f 56/79/60 54/80/61 52/77/58
f 55/81/62 56/82/60 50/2/2
f 55/81/62 60/83/63 57/84/64
f 58/85/65 59/86/66 51/87/67
f 58/85/65 54/88/61 60/89/63
f 54/80/61 57/90/64 60/91/63
f 64/92/68 65/93/69 61/9/9
f 64/92/68 69/94/70 66/95/71
f 67/96/72 68/97/73 62/12/12
f 71/98/74 69/99/70 67/96/72
f 70/100/75 71/101/74 63/4/4
f 65/102/69 72/103/76 70/100/75
f 66/95/71 69/94/70 72/104/76
f 76/105/77 77/106/78 73/5/5
f 80/107/79 78/108/80 76/105/77
f 79/109/81 80/110/79 74/111/82
f 79/109/81 84/112/83 81/113/84
f 82/114/85 83/115/86 75/116/87
f 77/117/78 84/118/83 82/114/85
f 78/108/80 81/119/84 84/120/83
f 88/121/88 89/122/89 85/7/7
f 88/121/88 93/123/90 90/124/91
f 91/125/92 92/126/93 86/6/6
f 91/125/92 96/127/94 93/128/90
f 94/129/95 95/130/96 87/13/13
f 89/131/89 96/132/94 94/129/95
f 90/124/91 93/123/90 96/133/94
f 13/10/10 4/16/16 1/18/18
f 17/33/28 8/19/19 4/16/16
f 22/40/34 2/23/22 8/22/19
f 37/64/49 19/36/31 14/8/8
f 41/63/48 23/134/35 19/36/31
f 46/71/55 15/42/36 23/41/35
f 25/14/14 43/67/52 38/15/15
f 29/48/38 47/69/54 43/67/52
f 34/55/44 39/73/56 47/72/54
f 3/3/3 31/51/41 26/1/1
f 11/27/23 35/135/45 31/51/41
f 7/21/21 27/57/46 35/56/45
f 85/7/7 40/62/47 37/64/49
f 89/122/89 44/136/53 40/62/47
f 94/129/95 38/15/15 44/68/53
f 73/5/5 91/125/92 86/6/6
f 77/106/78 95/137/96 91/125/92
f 82/114/85 87/13/13 95/130/96
f 26/1/1 79/109/81 74/111/82
f 32/52/39 83/138/86 79/109/81
f 28/47/37 75/116/87 83/115/86
f 61/9/9 88/121/88 85/7/7
f 65/93/69 92/139/93 88/121/88
f 70/100/75 86/6/6 92/126/93
f 49/11/11 67/96/72 62/12/12
f 53/78/59 71/98/74 67/96/72
f 58/85/65 63/4/4 71/101/74
f 74/111/82 55/81/62 50/2/2
f 80/110/79 59/140/66 55/81/62
f 76/105/77 51/87/67 59/86/66
f 14/8/8 64/92/68 61/9/9
f 20/37/29 68/141/73 64/92/68
f 16/32/27 62/12/12 68/97/73
f 50/2/2 10/26/25 3/3/3
f 56/82/60 5/142/17 10/26/25
f 52/77/58 1/18/18 5/17/17
f 39/73/56 2/23/22 15/42/36
f 26/1/1 74/111/82 50/2/2
f 63/4/4 51/87/67 73/5/5
f 85/7/7 37/64/49 14/8/8
f 13/10/10 1/18/18 49/11/11
f 87/13/13 75/116/87 25/14/14
f 4/16/16 6/20/20 5/17/17
f 8/19/19 9/30/24 6/20/20
f 7/21/21 9/25/24 8/22/19
f 11/24/23 12/143/26 9/25/24
f 10/26/25 12/29/26 11/27/23
f 10/26/25 5/142/17 6/28/20
f 16/32/27 18/35/30 17/33/28
f 20/34/29 21/45/33 18/35/30
f 19/36/31 21/39/33 20/37/29
f 19/36/31 23/134/35 24/38/32
f 22/40/34 24/44/32 23/41/35
f 22/40/34 17/144/28 18/43/30
f 28/47/37 30/50/40 29/48/38
f 32/49/39 33/60/43 30/50/40
f 31/51/41 33/54/43 32/52/39
f 31/51/41 35/135/45 36/53/42
f 34/55/44 36/59/42 35/56/45
f 34/55/44 29/145/38 30/58/40
f 40/62/47 42/66/51 41/63/48
f 40/62/47 44/136/53 45/65/50
f 43/67/52 45/70/50 44/68/53
f 47/69/54 48/146/57 45/70/50
f 46/71/55 48/75/57 47/72/54
f 41/74/48 42/147/51 48/75/57
f 52/77/58 54/80/61 53/78/59
f 56/79/60 57/90/64 54/80/61
f 55/81/62 57/84/64 56/82/60
f 55/81/62 59/140/66 60/83/63
f 58/85/65 60/89/63 59/86/66
f 58/85/65 53/148/59 54/88/61
f 64/92/68 66/95/71 65/93/69
f 64/92/68 68/141/73 69/94/70
f 67/96/72 69/99/70 68/97/73
f 71/98/74 72/149/76 69/99/70
f 70/100/75 72/103/76 71/101/74
f 65/102/69 66/150/71 72/103/76
f 76/105/77 78/108/80 77/106/78
f 80/107/79 81/119/84 78/108/80
f 79/109/81 81/113/84 80/110/79
f 79/109/81 83/138/86 84/112/83
f 82/114/85 84/118/83 83/115/86
f 77/117/78 78/151/80 84/118/83
f 88/121/88 90/124/91 89/122/89
f 88/121/88 92/139/93 93/123/90
f 91/125/92 93/128/90 92/126/93
f 91/125/92 95/137/96 96/127/94
f 94/129/95 96/132/94 95/130/96
f 89/131/89 90/152/91 96/132/94
f 13/10/10 17/33/28 4/16/16
f 17/33/28 22/153/34 8/19/19
f 22/40/34 15/42/36 2/23/22
f 37/64/49 41/63/48 19/36/31
f 41/63/48 46/154/55 23/134/35
f 46/71/55 39/73/56 15/42/36
f 25/14/14 29/48/38 43/67/52
f 29/48/38 34/155/44 47/69/54
f 34/55/44 27/57/46 39/73/56
f 3/3/3 11/27/23 31/51/41
f 11/27/23 7/156/21 35/135/45
f 7/21/21 2/23/22 27/57/46
f 85/7/7 89/122/89 40/62/47
f 89/122/89 94/157/95 44/136/53
f 94/129/95 87/13/13 38/15/15
f 73/5/5 77/106/78 91/125/92
f 77/106/78 82/158/85 95/137/96
f 82/114/85 75/116/87 87/13/13
f 26/1/1 32/52/39 79/109/81
f 32/52/39 28/159/37 83/138/86
f 28/47/37 25/14/14 75/116/87
f 61/9/9 65/93/69 88/121/88
f 65/93/69 70/160/75 92/139/93
f 70/100/75 63/4/4 86/6/6
f 49/11/11 53/78/59 67/96/72
f 53/78/59 58/161/65 71/98/74
f 58/85/65 51/87/67 63/4/4
f 74/111/82 80/110/79 55/81/62
f 80/110/79 76/162/77 59/140/66
f 76/105/77 73/5/5 51/87/67
f 14/8/8 20/37/29 64/92/68
f 20/37/29 16/163/27 68/141/73
f 16/32/27 13/10/10 62/12/12
f 50/2/2 56/82/60 10/26/25
f 56/82/60 52/164/58 5/142/17
f 52/77/58 49/11/11 1/18/18
f 39/73/56 27/57/46 2/23/22
